<svg xmlns="http://www.w3.org/2000/svg" xmlns:xlink="http://www.w3.org/1999/xlink" width="99" height="24" fill="none" xmlns:v="https://vecta.io/nano"><style><![CDATA[.B{fill-rule:evenodd}.C{fill:#fff}.D{fill:#108ee9}]]></style><mask id="A" maskUnits="userSpaceOnUse" x="0" y="0" width="24" height="24" mask-type="alpha"><path d="M22.147 5.678C20.037 2.289 16.283.034 12.001.034A11.96 11.96 0 0 0 .051 12a11.96 11.96 0 0 0 11.95 11.965A11.96 11.96 0 0 0 23.951 12c0-1.36-.238-2.662-.655-3.88.638 3.282-2.176 7.14-7.122 8.309-5.227 1.235-10.723-.698-11.469-4.01s4.369-7.144 8.562-8.123c3.843-.897 7.035-.274 8.756 1.432" class="B C"/></mask><g mask="url(#A)" class="B D"><path d="M13.749 11.347L8.607 8.706c-.229-.225 1.639 1.952 5.203 6.532.211.266.582.223.756-.025 6.996-8.792 10.513-12.651 9.051-11.578l-9.868 7.712z"/></g><mask id="B" maskUnits="userSpaceOnUse" x="0" y="0" width="24" height="24" mask-type="alpha"><path d="M22.147 5.678C20.037 2.289 16.283.034 12.001.034A11.96 11.96 0 0 0 .051 12a11.96 11.96 0 0 0 11.95 11.965A11.96 11.96 0 0 0 23.951 12c0-1.36-.238-2.662-.655-3.88.638 3.282-2.176 7.14-7.122 8.309-5.227 1.235-10.723-.698-11.469-4.01s4.369-7.144 8.562-8.123c3.843-.897 7.035-.274 8.756 1.432" class="B C"/></mask><g mask="url(#B)" class="D"><path stroke="#108ee9" stroke-width=".5" d="M-2.816-2.327h30.73v29.61h-30.73z"/></g><mask id="C" maskUnits="userSpaceOnUse" x="0" y="0" width="24" height="24" mask-type="alpha"><path d="M22.147 5.678C20.037 2.289 16.283.034 12.001.034A11.96 11.96 0 0 0 .051 12a11.96 11.96 0 0 0 11.95 11.965A11.96 11.96 0 0 0 23.951 12c0-1.36-.238-2.662-.655-3.88.638 3.282-2.176 7.14-7.122 8.309-5.227 1.235-10.723-.698-11.469-4.01s4.369-7.144 8.562-8.123c3.843-.897 7.035-.274 8.756 1.432" class="B C"/></mask><g mask="url(#C)" class="B"><path d="M23.576 10.102c0 5.657-4.905 11.229-10.955 11.229S1.666 16.343 1.666 10.686 6.571.845 12.621.845s10.955 3.6 10.955 9.258z" fill="url(#H)"/></g><mask id="D" maskUnits="userSpaceOnUse" x="0" y="0" width="24" height="24" mask-type="alpha"><path d="M22.147 5.678C20.037 2.289 16.283.034 12.001.034A11.96 11.96 0 0 0 .051 12a11.96 11.96 0 0 0 11.95 11.965A11.96 11.96 0 0 0 23.951 12c0-1.36-.238-2.662-.655-3.88.638 3.282-2.176 7.14-7.122 8.309-5.227 1.235-10.723-.698-11.469-4.01s4.369-7.144 8.562-8.123c3.843-.897 7.035-.274 8.756 1.432" class="B C"/></mask><g mask="url(#D)"><ellipse cx="12.787" cy="9.006" rx="10.789" ry="11.943" fill="url(#I)"/></g><mask id="E" maskUnits="userSpaceOnUse" x="0" y="0" width="24" height="24" mask-type="alpha"><path d="M22.147 5.678C20.037 2.289 16.283.034 12.001.034A11.96 11.96 0 0 0 .051 12a11.96 11.96 0 0 0 11.95 11.965A11.96 11.96 0 0 0 23.951 12c0-1.36-.238-2.662-.655-3.88.638 3.282-2.176 7.14-7.122 8.309-5.227 1.235-10.723-.698-11.469-4.01s4.369-7.144 8.562-8.123c3.843-.897 7.035-.274 8.756 1.432" class="B C"/></mask><g mask="url(#E)"><ellipse cx="12.223" cy="7.056" rx="9.704" ry="9.628" fill="url(#J)"/></g><mask id="F" maskUnits="userSpaceOnUse" x="0" y="0" width="24" height="24" mask-type="alpha"><path d="M22.147 5.678C20.037 2.289 16.283.034 12.001.034A11.96 11.96 0 0 0 .051 12a11.96 11.96 0 0 0 11.95 11.965A11.96 11.96 0 0 0 23.951 12c0-1.36-.238-2.662-.655-3.88.638 3.282-2.176 7.14-7.122 8.309-5.227 1.235-10.723-.698-11.469-4.01s4.369-7.144 8.562-8.123c3.843-.897 7.035-.274 8.756 1.432" class="B C"/></mask><g mask="url(#F)" class="B"><path d="M22.175 4.701c1.626 4.052-1.087 8.959-6.059 10.96s-10.322.338-11.949-3.714 1.087-8.959 6.06-10.96S20.549.649 22.175 4.701z" fill="url(#K)"/></g><mask id="G" maskUnits="userSpaceOnUse" x="0" y="0" width="24" height="24" mask-type="alpha"><path d="M22.147 5.678C20.037 2.289 16.283.034 12.001.034A11.96 11.96 0 0 0 .051 12a11.96 11.96 0 0 0 11.95 11.965A11.96 11.96 0 0 0 23.951 12c0-1.36-.238-2.662-.655-3.88.638 3.282-2.176 7.14-7.122 8.309-5.227 1.235-10.723-.698-11.469-4.01s4.369-7.144 8.562-8.123c3.843-.897 7.035-.274 8.756 1.432" class="B C"/></mask><g mask="url(#G)" class="B"><path d="M22.238 4.856c1.556 3.877-1.214 8.642-6.187 10.643s-10.265.48-11.822-3.398 1.214-8.642 6.187-10.643 10.266-.48 11.822 3.398z" fill="url(#L)"/></g><g class="B"><path d="M13.774 11.19L8.622 8.549c-.229-.225 1.642 1.952 5.213 6.532.211.266.583.223.758-.025 7.009-8.792 10.532-12.651 9.068-11.578l-9.887 7.712z" class="D"/><path d="M28.25 20.443v-7.459h3.044c1.777 0 2.852 1.055 2.852 2.579v.021c0 1.726-1.341 2.621-3.012 2.621h-1.245v2.238H28.25zm1.639-3.697h1.298c.819 0 1.298-.49 1.298-1.13v-.021c0-.735-.511-1.129-1.33-1.129h-1.266v2.28zm5.282 3.697v-7.459h3.405c.947 0 1.681.266 2.171.757.415.416.639 1.002.639 1.705v.021c0 1.204-.649 1.961-1.596 2.312l1.82 2.664h-1.916l-1.596-2.387H36.81v2.387h-1.639zm1.639-3.836h1.66c.798 0 1.256-.426 1.256-1.055v-.021c0-.703-.489-1.065-1.288-1.065H36.81v2.142zm9.485 3.964c-2.299 0-3.948-1.715-3.948-3.836v-.021c0-2.12 1.671-3.857 3.969-3.857s3.948 1.715 3.948 3.836v.021c0 2.12-1.671 3.857-3.969 3.857zm.021-1.513c1.319 0 2.235-1.044 2.235-2.323v-.021c0-1.279-.936-2.344-2.256-2.344s-2.235 1.044-2.235 2.323v.021c0 1.279.937 2.344 2.256 2.344zm6.633 1.385v-5.946h-2.267v-1.513h6.172v1.513h-2.267v5.946H52.95zm4.973 0v-7.459h5.619v1.46H59.55v1.513h3.512v1.46H59.55v1.566h4.044v1.46h-5.672zm10.433.128c-2.192 0-3.82-1.694-3.82-3.836v-.021c0-2.12 1.596-3.857 3.884-3.857 1.405 0 2.245.469 2.937 1.151l-1.043 1.204c-.575-.522-1.16-.842-1.905-.842-1.256 0-2.16 1.044-2.16 2.323v.021c0 1.279.883 2.344 2.16 2.344.851 0 1.373-.341 1.958-.874l1.043 1.055c-.766.82-1.618 1.332-3.054 1.332zm5.91-.128v-5.946h-2.267v-1.513h6.172v1.513h-2.267v5.946h-1.639zm5.048 0v-7.459h1.639v7.459h-1.639zm6.931.128c-2.299 0-3.948-1.715-3.948-3.836v-.021c0-2.12 1.671-3.857 3.969-3.857s3.948 1.715 3.948 3.836v.021c0 2.12-1.671 3.857-3.969 3.857zm.021-1.513c1.32 0 2.235-1.044 2.235-2.323v-.021c0-1.279-.936-2.344-2.256-2.344s-2.235 1.044-2.235 2.323v.021c0 1.279.936 2.344 2.256 2.344zm5.218 1.385v-7.459h1.511l3.49 4.592v-4.592h1.618v7.459H96.71l-3.608-4.742v4.742h-1.618zM28.25 11.142v-7.66h2.983c2.404 0 4.065 1.652 4.065 3.808v.022c0 2.156-1.661 3.83-4.065 3.83H28.25zm1.683-1.521h1.3c1.377 0 2.306-.93 2.306-2.287v-.022c0-1.357-.929-2.309-2.306-2.309h-1.3v4.618zm5.468 1.521l3.279-7.714h1.552l3.279 7.714h-1.759l-.699-1.718h-3.235l-.699 1.718h-1.716zm3.016-3.206h2.033l-1.016-2.484-1.016 2.484zm6.08 3.206v-7.66h1.552l3.584 4.716V3.482h1.661v7.66h-1.432l-3.705-4.869v4.869h-1.661zm7.785 0l3.279-7.714h1.552l3.279 7.714h-1.759l-.699-1.718h-3.235L54 11.142h-1.716zm3.016-3.206h2.033l-1.016-2.484-1.016 2.484z" fill="#727272"/></g><defs><linearGradient id="H" x1="1.971" y1="11.709" x2="-2.03" y2="30.168" xlink:href="#M"><stop stop-color="#108ee9"/><stop offset="1" stop-color="#7febff"/></linearGradient><linearGradient id="I" x1="9.864" y1="12.996" x2="11.604" y2="20.702" xlink:href="#M"><stop stop-color="#69d0ff"/><stop offset="1" stop-color="#108ee9"/></linearGradient><linearGradient id="J" x1="11.139" y1="18.928" x2="25.707" y2="8.277" xlink:href="#M"><stop stop-color="#7febff"/><stop offset="1" stop-color="#108ee9"/></linearGradient><linearGradient id="K" x1="15.802" y1="20.395" x2="26.426" y2="4.368" xlink:href="#M"><stop stop-color="#108ee9"/><stop offset="1" stop-color="#7febff"/></linearGradient><linearGradient id="L" x1="12.081" y1="18.222" x2="28.755" y2="8.651" xlink:href="#M"><stop stop-color="#108ee9"/><stop offset="1" stop-color="#7febff"/></linearGradient><linearGradient id="M" gradientUnits="userSpaceOnUse"/></defs></svg>