<svg xmlns="http://www.w3.org/2000/svg" xmlns:xlink="http://www.w3.org/1999/xlink" width="49" height="48" fill="none" xmlns:v="https://vecta.io/nano"><style><![CDATA[.B{fill:#8ae8b8}.C{fill-rule:evenodd}.D{fill:#fff}]]></style><path d="M48.5 24c0 13.255-10.745 24-24 24S.5 37.255.5 24s10.745-24 24-24 24 10.745 24 24z" fill="#badffa"/><mask id="A" maskUnits="userSpaceOnUse" x="0" y="0" width="49" height="48"><path d="M48.5 24c0 13.255-10.745 24-24 24S.5 37.255.5 24s10.745-24 24-24 24 10.745 24 24z" class="D"/></mask><g mask="url(#A)"><path d="M11.188 15.451a3.64 3.64 0 0 1 3.638-3.638h19.231a3.64 3.64 0 0 1 3.638 3.638v41.32a3.64 3.64 0 0 1-3.638 3.638H14.826a3.64 3.64 0 0 1-3.638-3.638v-41.32z" fill="#313131"/><path d="M11.967 17.009a3.12 3.12 0 0 1 3.119-3.119h18.711a3.12 3.12 0 0 1 3.118 3.119V56.51a3.12 3.12 0 0 1-3.118 3.118H15.085a3.12 3.12 0 0 1-3.119-3.118V17.009z" fill="#108ee9"/><mask id="B" maskUnits="userSpaceOnUse" x="11" y="13" width="26" height="47"><path d="M11.967 17.009a3.12 3.12 0 0 1 3.119-3.119h18.711a3.12 3.12 0 0 1 3.118 3.119V56.51a3.12 3.12 0 0 1-3.118 3.118H15.085a3.12 3.12 0 0 1-3.119-3.118V17.009z" class="D"/></mask><g mask="url(#B)" class="C"><path d="M11.967 13.039l2.859-.52s.851 8.505 10.064 21.971c7.72 11.283 2.172 21.405.17 24.39-.389.579-1.046.89-1.744.892l-9.001.034a2.34 2.34 0 0 1-2.348-2.339v-44.43z" fill="#1083d5"/></g><path d="M21.063 12.852a.52.52 0 0 1-.52.52.52.52 0 0 1-.52-.52.52.52 0 0 1 .52-.52.52.52 0 0 1 .52.52z" fill="#939393"/><path d="M22.362 12.852a.52.52 0 0 1 .52-.52h6.757a.52.52 0 0 1 .52.52.52.52 0 0 1-.52.52h-6.757a.52.52 0 0 1-.52-.52z" fill="#525252"/><path d="M15.912 27.941l8.535-1.952 8.535 1.952v6.63a10.67 10.67 0 0 1-6.781 9.935l-1.754.686-1.753-.686a10.67 10.67 0 0 1-6.781-9.935v-6.63z" fill="#b8f1d4" class="C"/><mask id="C" maskUnits="userSpaceOnUse" x="15" y="25" width="18" height="21"><path d="M15.912 27.941l8.535-1.952 8.535 1.952v6.63a10.67 10.67 0 0 1-6.781 9.935l-1.754.686-1.753-.686a10.67 10.67 0 0 1-6.781-9.935v-6.63z" class="C D"/></mask><g mask="url(#C)"><use xlink:href="#I" class="B"/><use xlink:href="#I" x="-3.214" y="0.567" class="B"/><use xlink:href="#I" x="-6.427" y="1.32" class="B"/><use xlink:href="#I" x="-7.561" y="3.59" class="B"/><path d="M14.846 37.745s1.791-3.027 5.334-4.226 6.636 4.929 10.092 4.328 3.781-5.245 3.781-5.245v12.574H14.846v-7.43z" class="B C"/><use xlink:href="#I" x="-7.561" y="6.235" class="B"/><use xlink:href="#I" x="-7.371" y="8.883" class="B"/><use xlink:href="#I" x="7.559" y="3.59" class="B"/><use xlink:href="#I" x="7.559" y="6.235" class="B"/><use xlink:href="#I" x="7.37" y="8.883" class="B"/><use xlink:href="#I" x="6.425" y="1.32" class="B"/><use xlink:href="#I" x="3.213" y="0.567" class="B"/><path d="M18.046 29.906l6.401-1.464 6.401 1.464v4.972a8 8 0 0 1-5.086 7.451l-1.315.514-1.315-.514a8 8 0 0 1-5.086-7.451v-4.972z" fill="#00ce64" class="C"/><path d="M18.046 29.906l6.401-1.464 6.401 1.464-.03 3.216s-1.676 4.205-4.511 3.072-2.457-2.457-4.536-3.213-3.755.142-3.755.142l.03-3.216z" fill="#00a952" class="C"/><path d="M27.898 32.906a1.01 1.01 0 0 0-1.444 0L23.61 35.8l-1.043-1.061a1.01 1.01 0 0 0-1.443 0c-.397.404-.397 1.065 0 1.469l1.699 1.728c.123.125.272.207.429.255.371.157.813.083 1.114-.224l3.532-3.594a1.05 1.05 0 0 0 0-1.469z" class="C D"/></g></g><path d="M24.875 0a3 3 0 0 0-3 3v14.813a3 3 0 0 0 3 3h1.5v5.672c0 .487.578.744.939.418l6.748-6.09H45.5a3 3 0 0 0 3-3V3a3 3 0 0 0-3-3H24.875z" fill="#e9f5fe" class="C"/><path d="M24.688 5.625a1.5 1.5 0 0 1 1.5-1.5h18a1.5 1.5 0 0 1 1.5 1.5V15a1.5 1.5 0 0 1-1.5 1.5h-18a1.5 1.5 0 0 1-1.5-1.5V5.625z" fill="#fedbb0"/><mask id="D" maskUnits="userSpaceOnUse" x="24" y="4" width="22" height="13"><path d="M24.688 5.625a1.5 1.5 0 0 1 1.5-1.5h18a1.5 1.5 0 0 1 1.5 1.5V15a1.5 1.5 0 0 1-1.5 1.5h-18a1.5 1.5 0 0 1-1.5-1.5V5.625z" class="D"/></mask><g mask="url(#D)" class="C"><path d="M35.01 10.514c.043-.024.095-.024.138 0l10.5 5.862c.068.038.092.123.054.191s-.124.092-.191.054L35.08 10.798l-10.323 5.823a.14.14 0 0 1-.192-.053c-.038-.068-.014-.153.053-.192l10.392-5.862z" fill="#fca73e"/></g><path d="M24.688 5.625a1.5 1.5 0 0 1 1.5-1.5h17.892a1.5 1.5 0 0 1 1.5 1.5v1.648l-9.813 4.285c-.643.281-1.376.271-2.011-.027l-9.068-4.258V5.625z" fill="#fca73e"/><mask id="E" maskUnits="userSpaceOnUse" x="24" y="4" width="22" height="8"><path d="M24.688 5.625a1.5 1.5 0 0 1 1.5-1.5h17.892a1.5 1.5 0 0 1 1.5 1.5v1.648l-9.813 4.285c-.643.281-1.376.271-2.011-.027l-9.068-4.258V5.625z" class="D"/></mask><g mask="url(#E)"><path d="M24.688 5.625a1.5 1.5 0 0 1 1.5-1.5H43.09s-1.799 2.476-5.521 1.422-4.871 1.969-7.902.656-4.979 0-4.979 0v-.578z" fill="#fb8b01"/></g><path d="M47.75 4.594c0 2.123-1.721 3.844-3.844 3.844s-3.844-1.721-3.844-3.844S41.783.75 43.906.75s3.844 1.721 3.844 3.844z" fill="#e9f5fe"/><mask id="F" maskUnits="userSpaceOnUse" x="40" y="0" width="8" height="9"><path d="M47.75 4.594c0 2.123-1.721 3.844-3.844 3.844s-3.844-1.721-3.844-3.844S41.783.75 43.906.75s3.844 1.721 3.844 3.844z" class="D"/></mask><g mask="url(#F)"><path d="M46.553 4.558c0 1.481-1.201 2.683-2.683 2.683s-2.682-1.201-2.682-2.682 1.201-2.682 2.682-2.682 2.683 1.201 2.683 2.683z" fill="#ff5d55"/><mask id="G" maskUnits="userSpaceOnUse" x="41" y="1" width="6" height="7"><path d="M46.553 4.558c0 1.481-1.201 2.683-2.683 2.683s-2.682-1.201-2.682-2.682 1.201-2.682 2.682-2.682 2.683 1.201 2.683 2.683z" class="D"/></mask><g mask="url(#G)"><path d="M44.233 1.039c0 2.222-1.801 4.024-4.024 4.024s-4.024-1.801-4.024-4.024 1.802-4.024 4.024-4.024 4.024 1.801 4.024 4.024z" fill="#d14c46"/></g></g><path d="M5.878 25.512a.47.47 0 0 1 .61-.259.47.47 0 0 1 .259.61c-2.203 5.45-2.203 10.631-.006 15.571a.47.47 0 0 1-.238.619.47.47 0 0 1-.619-.238c-2.303-5.178-2.303-10.623-.006-16.304zm1.685 2.537a.47.47 0 0 0-.577.326c-1.023 3.685-1.023 7.214.003 10.575a.47.47 0 0 0 .585.311.47.47 0 0 0 .311-.585c-.973-3.186-.973-6.533.003-10.05a.47.47 0 0 0-.326-.577zm1.898 1.319a.47.47 0 0 0-.593.297c-.907 2.722-.907 5.391.002 7.991a.47.47 0 0 0 .597.288.47.47 0 0 0 .288-.597c-.84-2.401-.84-4.857.002-7.384a.47.47 0 0 0-.296-.593zm31.976-1.319a.47.47 0 0 1 .577.326c1.023 3.685 1.023 7.214-.003 10.575a.47.47 0 0 1-.585.311.47.47 0 0 1-.311-.585c.973-3.186.973-6.533-.003-10.05a.47.47 0 0 1 .326-.577zm-1.305 1.616a.47.47 0 0 0-.593-.297.47.47 0 0 0-.297.593c.843 2.528.843 4.984.002 7.384a.47.47 0 0 0 .288.597.47.47 0 0 0 .597-.288c.91-2.599.91-5.268.002-7.991zm2.38-4.411a.47.47 0 0 1 .61.259c2.297 5.681 2.297 11.125-.006 16.304a.47.47 0 0 1-.619.238.47.47 0 0 1-.238-.619c2.197-4.941 2.197-10.121-.006-15.571a.47.47 0 0 1 .259-.61z" fill="url(#H)" class="C"/><defs><linearGradient id="H" x1="7.258" y1="31.932" x2="7.258" y2="46.234" gradientUnits="userSpaceOnUse"><stop stop-color="#108ee9"/><stop offset="1" stop-color="#fff" stop-opacity=".01"/></linearGradient><path id="I" d="M24.985 27.313c0 .313-.254.567-.567.567s-.567-.254-.567-.567.254-.567.567-.567.567.254.567.567z"/></defs></svg>