<svg xmlns="http://www.w3.org/2000/svg" xmlns:xlink="http://www.w3.org/1999/xlink" width="49" height="48" fill="none" xmlns:v="https://vecta.io/nano"><path d="M48.5 24c0 13.255-10.745 24-24 24S.5 37.255.5 24s10.745-24 24-24 24 10.745 24 24z" fill="#badffa"/><mask id="A" maskUnits="userSpaceOnUse" x="0" y="0" width="49" height="48"><path d="M48.5 24c0 13.255-10.745 24-24 24S.5 37.255.5 24s10.745-24 24-24 24 10.745 24 24z" fill="#fff"/></mask><g mask="url(#A)"><path d="M7.316 22.113h30.675l4.544-6.403a5.53 5.53 0 0 0-3.165-5L27.264 5.028c-1.481-.695-3.195-.695-4.676 0L10.481 10.71c-1.932.907-3.165 2.848-3.165 4.982v6.422z" fill="#e6f5ff"/><path d="M24.597 31.864l-1.601.715c-.696.311-1.516.092-1.963-.524l-1.028-1.417c-.134-.185-.342-.305-.57-.328l-1.745-.179c-.759-.078-1.359-.676-1.437-1.432l-.18-1.74a.8.8 0 0 0-.329-.568l-1.422-1.025a1.6 1.6 0 0 1-.526-1.957l.717-1.596a.8.8 0 0 0 0-.656l-.717-1.596a1.6 1.6 0 0 1 .526-1.957l1.422-1.025a.8.8 0 0 0 .329-.568l.18-1.74c.078-.757.678-1.355 1.437-1.432l1.745-.179c.228-.023.436-.143.57-.328l1.028-1.417c.447-.616 1.267-.835 1.963-.524l1.601.715c.209.094.449.094.658 0l1.601-.715c.696-.311 1.516-.092 1.963.524l1.028 1.417c.134.185.342.305.57.328l1.745.179a1.61 1.61 0 0 1 1.437 1.432l.179 1.74a.8.8 0 0 0 .329.568l1.422 1.025c.618.446.838 1.263.526 1.957l-.717 1.596a.8.8 0 0 0 0 .656l.717 1.596c.312.694.092 1.511-.526 1.957l-1.422 1.025a.8.8 0 0 0-.329.568l-.179 1.74a1.61 1.61 0 0 1-1.437 1.432l-1.745.179c-.228.023-.436.143-.57.328l-1.028 1.417c-.447.616-1.267.835-1.963.524l-1.601-.715c-.209-.093-.449-.093-.658 0z" fill="#108ee9"/><mask id="B" maskUnits="userSpaceOnUse" x="13" y="10" width="24" height="23"><path d="M24.597 31.864l-1.601.715c-.696.311-1.516.092-1.963-.524l-1.028-1.417c-.134-.185-.342-.305-.57-.328l-1.745-.179c-.759-.078-1.359-.676-1.437-1.432l-.18-1.74a.8.8 0 0 0-.329-.568l-1.422-1.025a1.6 1.6 0 0 1-.526-1.957l.717-1.596a.8.8 0 0 0 0-.656l-.717-1.596a1.6 1.6 0 0 1 .526-1.957l1.422-1.025a.8.8 0 0 0 .329-.568l.18-1.74c.078-.757.678-1.355 1.437-1.432l1.745-.179c.228-.023.436-.143.57-.328l1.028-1.417c.447-.616 1.267-.835 1.963-.524l1.601.715c.209.094.449.094.658 0l1.601-.715c.696-.311 1.516-.092 1.963.524l1.028 1.417c.134.185.342.305.57.328l1.745.179a1.61 1.61 0 0 1 1.437 1.432l.179 1.74a.8.8 0 0 0 .329.568l1.422 1.025c.618.446.838 1.263.526 1.957l-.717 1.596a.8.8 0 0 0 0 .656l.717 1.596c.312.694.092 1.511-.526 1.957l-1.422 1.025a.8.8 0 0 0-.329.568l-.179 1.74a1.61 1.61 0 0 1-1.437 1.432l-1.745.179c-.228.023-.436.143-.57.328l-1.028 1.417c-.447.616-1.267.835-1.963.524l-1.601-.715c-.209-.093-.449-.093-.658 0z" fill="#fff"/></mask><g mask="url(#B)"><path d="M33.943 14.745c0 6.825-5.676 12.358-12.679 12.358S8.585 21.57 8.585 14.745 14.262 2.387 21.264 2.387 33.943 7.92 33.943 14.745z" fill="url(#G)"/></g><path d="M7.316 21.967a4.26 4.26 0 0 1 4.26-4.26h22.864l-4.26 3.824-5.254 9.951-17.609-8.265v-1.25z" fill="url(#H)"/><path d="M30.833 19.826c0 3.261-2.645 5.904-5.908 5.904s-5.908-2.643-5.908-5.904 2.645-5.904 5.908-5.904 5.908 2.643 5.908 5.904z" fill="#9fd2f6"/><path d="M7.317 22.113h35.219v-6.422c0-2.134-1.233-4.075-3.165-4.982L27.265 5.028c-1.481-.695-3.195-.695-4.676 0L10.482 10.71c-1.931.907-3.165 2.848-3.165 4.982v6.422z" fill="#e6f5ff"/><path d="M24.598 31.864l-1.601.715c-.696.311-1.516.092-1.963-.524l-1.028-1.417c-.134-.185-.342-.305-.57-.328l-1.745-.179a1.61 1.61 0 0 1-1.437-1.432l-.179-1.74a.8.8 0 0 0-.329-.568l-1.422-1.025c-.618-.446-.838-1.263-.526-1.957l.717-1.596a.8.8 0 0 0 0-.656l-.717-1.596c-.312-.694-.092-1.511.526-1.957l1.422-1.025a.8.8 0 0 0 .329-.568l.179-1.74a1.61 1.61 0 0 1 1.437-1.432l1.745-.179c.228-.023.436-.143.57-.328l1.028-1.417c.447-.616 1.267-.835 1.963-.524l1.601.715c.209.094.449.094.658 0l1.601-.715c.696-.311 1.516-.092 1.963.524l1.028 1.417c.135.185.342.305.57.328l1.745.179c.759.078 1.359.676 1.437 1.432l.179 1.74a.8.8 0 0 0 .329.568l1.422 1.025a1.6 1.6 0 0 1 .526 1.957l-.717 1.596a.8.8 0 0 0 0 .656l.717 1.596a1.6 1.6 0 0 1-.526 1.957l-1.422 1.025a.8.8 0 0 0-.329.568l-.179 1.74c-.078.756-.678 1.355-1.437 1.432l-1.745.179c-.228.023-.436.143-.57.328l-1.028 1.417c-.447.616-1.267.835-1.963.524l-1.601-.715c-.209-.093-.449-.093-.658 0z" fill="#108ee9"/><mask id="C" maskUnits="userSpaceOnUse" x="13" y="10" width="24" height="23"><path d="M24.598 31.864l-1.601.715c-.696.311-1.516.092-1.963-.524l-1.028-1.417c-.134-.185-.342-.305-.57-.328l-1.745-.179a1.61 1.61 0 0 1-1.437-1.432l-.179-1.74a.8.8 0 0 0-.329-.568l-1.422-1.025c-.618-.446-.838-1.263-.526-1.957l.717-1.596a.8.8 0 0 0 0-.656l-.717-1.596c-.312-.694-.092-1.511.526-1.957l1.422-1.025a.8.8 0 0 0 .329-.568l.179-1.74a1.61 1.61 0 0 1 1.437-1.432l1.745-.179c.228-.023.436-.143.57-.328l1.028-1.417c.447-.616 1.267-.835 1.963-.524l1.601.715c.209.094.449.094.658 0l1.601-.715c.696-.311 1.516-.092 1.963.524l1.028 1.417c.135.185.342.305.57.328l1.745.179c.759.078 1.359.676 1.437 1.432l.179 1.74a.8.8 0 0 0 .329.568l1.422 1.025a1.6 1.6 0 0 1 .526 1.957l-.717 1.596a.8.8 0 0 0 0 .656l.717 1.596a1.6 1.6 0 0 1-.526 1.957l-1.422 1.025a.8.8 0 0 0-.329.568l-.179 1.74c-.078.756-.678 1.355-1.437 1.432l-1.745.179c-.228.023-.436.143-.57.328l-1.028 1.417c-.447.616-1.267.835-1.963.524l-1.601-.715c-.209-.093-.449-.093-.658 0z" fill="#fff"/></mask><g mask="url(#C)"><path d="M33.944 14.745c0 6.825-5.677 12.358-12.679 12.358S8.586 21.57 8.586 14.745 14.262 2.387 21.265 2.387 33.944 7.92 33.944 14.745z" fill="url(#I)"/><path d="M32.285 21.525c0 4.033-3.28 7.302-7.326 7.302s-7.325-3.269-7.325-7.302 3.28-7.303 7.325-7.303 7.326 3.269 7.326 7.303z" fill="#9fd2f6"/><path d="M31.55 21.586c0 3.596-2.925 6.512-6.532 6.512s-6.533-2.916-6.533-6.512 2.925-6.512 6.533-6.512 6.532 2.915 6.532 6.512z" fill="#fff"/></g><path d="M7.318 21.62c0-2.161 1.752-3.913 3.913-3.913h27.393c2.161 0 3.913 1.752 3.913 3.913v18.071c0 2.161-1.752 3.913-3.913 3.913H11.232c-2.161 0-3.913-1.752-3.913-3.913V21.62z" fill="#e6f5ff"/><mask id="D" maskUnits="userSpaceOnUse" x="7" y="17" width="36" height="27"><path d="M7.318 21.62c0-2.161 1.752-3.913 3.913-3.913h27.393c2.161 0 3.913 1.752 3.913 3.913v18.071c0 2.161-1.752 3.913-3.913 3.913H11.232c-2.161 0-3.913-1.752-3.913-3.913V21.62z" fill="#fff"/></mask><g mask="url(#D)"><path fill-rule="evenodd" d="M13.371 40.576c-1.368 0-2.476-1.109-2.476-2.476v-4.137c0-.456-.37-.826-.825-.826s-.825.37-.825.826v4.137a4.13 4.13 0 0 0 4.127 4.127v-1.651z" fill="#bbdefb"/><path d="M57.945 33.741c0-2.161-1.752-3.913-3.913-3.913H22.726l35.219 27.127V33.741z" fill="url(#J)"/><path d="M7.318 17.707h35.219v5.51l-17.609 8.265-17.609-8.265v-5.51z" fill="url(#K)"/><mask id="E" maskUnits="userSpaceOnUse" x="7" y="17" width="36" height="15"><path d="M7.318 17.707h35.219v5.51l-17.609 8.265-17.609-8.265v-5.51z" fill="#fff"/></mask><g mask="url(#E)"><path d="M24.599 31.864l-1.601.715c-.696.311-1.516.092-1.963-.524l-1.028-1.417c-.134-.185-.342-.305-.57-.328l-1.745-.179a1.61 1.61 0 0 1-1.437-1.432l-.179-1.74a.8.8 0 0 0-.329-.568l-1.421-1.025a1.6 1.6 0 0 1-.526-1.957l.717-1.596a.8.8 0 0 0 0-.656l-.717-1.596a1.6 1.6 0 0 1 .526-1.957l1.422-1.025a.8.8 0 0 0 .329-.568l.179-1.74a1.61 1.61 0 0 1 1.437-1.432l1.745-.179c.228-.023.436-.143.57-.328l1.028-1.417c.447-.616 1.267-.835 1.963-.524l1.601.715c.209.094.449.094.658 0l1.601-.715c.696-.311 1.516-.092 1.963.524l1.028 1.417c.134.185.342.305.57.328l1.745.179a1.61 1.61 0 0 1 1.437 1.432l.18 1.74a.8.8 0 0 0 .329.568l1.422 1.025a1.6 1.6 0 0 1 .526 1.957l-.717 1.596a.8.8 0 0 0 0 .656l.717 1.596a1.6 1.6 0 0 1-.526 1.957L34.11 26.39a.8.8 0 0 0-.329.568l-.18 1.74a1.61 1.61 0 0 1-1.437 1.432l-1.745.179c-.228.023-.436.143-.57.328l-1.028 1.417c-.447.616-1.267.835-1.963.524l-1.601-.715c-.209-.093-.449-.093-.658 0z" fill="#108ee9"/><mask id="F" maskUnits="userSpaceOnUse" x="13" y="10" width="24" height="23"><path d="M24.599 31.864l-1.601.715c-.696.311-1.516.092-1.963-.524l-1.028-1.417c-.134-.185-.342-.305-.57-.328l-1.745-.179a1.61 1.61 0 0 1-1.437-1.432l-.179-1.74a.8.8 0 0 0-.329-.568l-1.421-1.025a1.6 1.6 0 0 1-.526-1.957l.717-1.596a.8.8 0 0 0 0-.656l-.717-1.596a1.6 1.6 0 0 1 .526-1.957l1.422-1.025a.8.8 0 0 0 .329-.568l.179-1.74a1.61 1.61 0 0 1 1.437-1.432l1.745-.179c.228-.023.436-.143.57-.328l1.028-1.417c.447-.616 1.267-.835 1.963-.524l1.601.715c.209.094.449.094.658 0l1.601-.715c.696-.311 1.516-.092 1.963.524l1.028 1.417c.134.185.342.305.57.328l1.745.179a1.61 1.61 0 0 1 1.437 1.432l.18 1.74a.8.8 0 0 0 .329.568l1.422 1.025a1.6 1.6 0 0 1 .526 1.957l-.717 1.596a.8.8 0 0 0 0 .656l.717 1.596a1.6 1.6 0 0 1-.526 1.957L34.11 26.39a.8.8 0 0 0-.329.568l-.18 1.74a1.61 1.61 0 0 1-1.437 1.432l-1.745.179c-.228.023-.436.143-.57.328l-1.028 1.417c-.447.616-1.267.835-1.963.524l-1.601-.715c-.209-.093-.449-.093-.658 0z" fill="#fff"/></mask><g mask="url(#F)"><path d="M33.945 14.745c0 6.825-5.676 12.358-12.679 12.358S8.587 21.57 8.587 14.745 14.263 2.387 21.266 2.387 33.945 7.92 33.945 14.745z" fill="url(#L)"/><path d="M32.286 21.525c0 4.033-3.28 7.302-7.326 7.302s-7.326-3.269-7.326-7.302 3.28-7.303 7.326-7.303 7.326 3.269 7.326 7.303z" fill="#9fd2f6"/><path d="M31.551 21.586c0 3.596-2.925 6.512-6.533 6.512s-6.533-2.916-6.533-6.512 2.925-6.512 6.533-6.512 6.533 2.915 6.533 6.512z" fill="#fff"/><path d="M28.344 18.368a1.1 1.1 0 0 1 1.461.051.9.9 0 0 1-.055 1.347l-5.282 4.515a1.1 1.1 0 0 1-1.406 0l-2.311-1.975a.9.9 0 0 1-.055-1.347 1.1 1.1 0 0 1 1.461-.051l1.608 1.374 4.579-3.914z" fill="#40a5ed"/></g></g><path fill-rule="evenodd" d="M10.017 28.652c.456 0 .825.37.825.825v1.561c0 .456-.37.825-.825.825s-.825-.369-.825-.825v-1.561c0-.456.37-.825.825-.825z" fill="#bbdefb"/></g></g><g fill-rule="evenodd" fill="#40a5ed"><use xlink:href="#M"/><path d="M9.873 6.678h.568v-.568a.57.57 0 0 1 .568-.568.57.57 0 0 1 .568.568v.568h.568a.57.57 0 0 1 .568.568.57.57 0 0 1-.568.568h-.568v.568a.57.57 0 0 1-.568.568.57.57 0 0 1-.568-.568v-.568h-.568a.57.57 0 0 1-.568-.568.57.57 0 0 1 .568-.568z"/><use xlink:href="#M" x="-1.864" y="26.117"/><path d="M2 25.819c0 .627.509 1.135 1.136 1.135s1.136-.508 1.136-1.135-.509-1.135-1.136-1.135S2 25.192 2 25.819zm1.893 0c0 .418-.339.757-.757.757s-.757-.339-.757-.757.339-.757.757-.757.757.339.757.757zm14.785 17.193c0 .941.763 1.703 1.704 1.703s1.704-.762 1.704-1.703-.763-1.703-1.704-1.703-1.704.763-1.704 1.703zm2.84 0c0 .627-.509 1.135-1.136 1.135s-1.136-.508-1.136-1.135.509-1.135 1.136-1.135 1.136.508 1.136 1.135z"/></g><path d="M4.193 30.948a.71.71 0 1 1-1.42 0 .71.71 0 1 1 1.42 0zm40.046-9.225a.852.852 0 1 1-1.704 0 .852.852 0 1 1 1.704 0z" fill="#40a5ed"/><defs><linearGradient id="G" x1="14.71" y1="14.816" x2="19.726" y2="25.358" xlink:href="#N"><stop stop-color="#5dcef9"/><stop offset="1" stop-color="#fff" stop-opacity=".15"/></linearGradient><linearGradient id="H" x1="10.737" y1="21.182" x2="10.737" y2="31.482" xlink:href="#N"><stop stop-color="#9fddff"/><stop offset="1" stop-color="#52b4f8"/></linearGradient><linearGradient id="I" x1="14.711" y1="14.816" x2="19.727" y2="25.358" xlink:href="#N"><stop stop-color="#5dcef9"/><stop offset="1" stop-color="#fff" stop-opacity=".15"/></linearGradient><linearGradient id="J" x1="47.751" y1="41.734" x2="42.568" y2="50.712" xlink:href="#N"><stop stop-color="#cdebfb" stop-opacity=".01"/><stop offset="1" stop-color="#3fb0ff" stop-opacity=".5"/></linearGradient><linearGradient id="K" x1="11.76" y1="21.182" x2="11.76" y2="31.482" xlink:href="#N"><stop stop-color="#9fddff"/><stop offset="1" stop-color="#52b4f8"/></linearGradient><linearGradient id="L" x1="14.712" y1="14.816" x2="19.728" y2="25.358" xlink:href="#N"><stop stop-color="#5dcef9"/><stop offset="1" stop-color="#fff" stop-opacity=".15"/></linearGradient><path id="M" d="M44.145 15.571h.473v-.473c0-.261.212-.473.473-.473s.473.212.473.473v.473h.473c.261 0 .473.212.473.473s-.212.473-.473.473h-.473v.473c0 .261-.212.473-.473.473s-.473-.212-.473-.473v-.473h-.473c-.261 0-.473-.212-.473-.473s.212-.473.473-.473z"/><linearGradient id="N" gradientUnits="userSpaceOnUse"/></defs></svg>